<svg xmlns="http://www.w3.org/2000/svg" width="14.902" height="14.884" viewBox="0 0 14.902 14.884"><g transform="translate(-10 -10.6)"><path d="M17.46,10.6A7.442,7.442,0,1,0,24.9,18.042,7.45,7.45,0,0,0,17.46,10.6Zm0,13.941a6.5,6.5,0,1,1,6.48-6.5A6.517,6.517,0,0,1,17.46,24.541Z" fill="#a4a4a4"/><path d="M660.4,452.679a.979.979,0,0,0,1.959,0h0a.979.979,0,0,0-1.959,0Z" transform="translate(-640.51 -434.392)" fill="#a4a4a4"/><path d="M436.2,452.679a.979.979,0,1,0,1.959,0h0a.979.979,0,1,0-1.959,0Z" transform="translate(-419.719 -434.392)" fill="#a4a4a4"/><path d="M210.7,452.679a.979.979,0,1,0,1.959,0h0a.979.979,0,1,0-1.959,0Z" transform="translate(-197.648 -434.392)" fill="#a4a4a4"/></g></svg>